<svg width="181" height="48" viewBox="0 0 181 48" fill="none" xmlns="http://www.w3.org/2000/svg">
    <g clip-path="url(#clip0_65_679)">
        <path
            d="M53.9227 13.7982C53.9616 13.0419 54.0391 12.46 54.1555 12.0528C56.25 12.4019 58.7616 12.5764 61.69 12.5764C64.6184 12.5764 67.6827 12.2273 70.8827 11.5291C70.553 13.9922 69.302 15.34 67.13 15.5728C66.4511 15.6698 65.4039 15.7667 63.9882 15.8637C63.9493 16.4261 63.6293 18.8891 63.0282 23.2528C62.427 27.5971 62.1264 30.5935 62.1264 32.2419C62.1264 33.8903 62.262 35.0346 62.5336 35.6746C60.8852 35.248 59.7602 34.6855 59.1591 33.9873C58.558 33.2698 58.2573 32.3873 58.2573 31.34C58.2573 30.2928 58.4998 28.0237 58.9845 24.5328C59.4889 21.0225 59.7893 18.2007 59.8864 16.0673C58.3155 16.1449 56.7736 16.1837 55.2609 16.1837C54.3689 16.1837 53.9227 15.3885 53.9227 13.7982ZM92.7896 29.3037C92.0914 29.5753 91.5484 29.711 91.1605 29.711C89.9968 29.711 89.347 29.5462 89.2114 29.2164C87.272 24.2321 85.992 21.0225 85.3714 19.5873C85.3132 20.111 85.158 21.3231 84.9059 23.2237C84.3823 26.9473 84.1205 30.0407 84.1205 32.5037C84.1205 33.1048 84.1593 33.9098 84.2368 34.9182C82.8793 34.9182 81.958 34.763 81.4732 34.4528C81.0077 34.123 80.775 33.6673 80.775 33.0855C80.775 32.8916 81.095 30.2539 81.735 25.1728C82.3943 20.0916 82.7241 16.5522 82.7241 14.5546V14.4091C82.1616 13.4976 81.5702 12.751 80.9495 12.1691C81.667 11.6649 82.5302 11.4128 83.5386 11.4128C84.8186 11.4128 85.8077 12.014 86.5059 13.2164C87.2041 14.3994 88.5714 17.6673 90.6077 23.02L91.9459 26.4528C92.0623 26.2589 92.2368 25.9971 92.4695 25.6673C97.2016 18.6661 99.6357 13.9146 99.7714 11.4128C99.7714 11.4322 100.004 11.4613 100.47 11.5C100.935 11.5194 101.43 11.6164 101.953 11.791C102.496 11.9461 102.884 12.1982 103.117 12.5473C103.369 12.877 103.524 13.2067 103.582 13.5364C103.64 13.8467 103.67 14.3898 103.67 15.1655C103.67 15.9219 103.35 18.4916 102.71 22.8746C102.07 27.2575 101.75 30.3316 101.75 32.0964C101.75 33.8419 101.885 35.0346 102.157 35.6746C100.508 35.248 99.3834 34.6855 98.7823 33.9873C98.1811 33.2698 97.8805 32.2807 97.8805 31.02C97.8805 30.283 98.0743 28.4698 98.4623 25.58C98.8695 22.6903 99.1507 20.3825 99.3059 18.6564C98.5302 19.9946 97.4248 21.8273 95.9895 24.1546C94.5739 26.4819 93.7205 27.8685 93.4296 28.3146C93.1386 28.7412 92.9252 29.071 92.7896 29.3037ZM116.201 20.1982C114.94 20.1982 113.815 21.0516 112.826 22.7582C111.837 24.4455 111.343 26.1328 111.343 27.82C111.343 31.3498 112.254 33.1146 114.077 33.1146C115.376 33.1146 116.433 32.271 117.248 30.5837C118.062 28.8771 118.47 26.9666 118.47 24.8528C118.47 21.7498 117.713 20.1982 116.201 20.1982ZM113.728 17.58C113.941 17.58 114.135 17.6479 114.31 17.7837C114.504 17.9 114.601 18.0261 114.601 18.1619C112.642 19.5194 111.469 21.4103 111.081 23.8346C111.488 22.7485 111.983 21.8079 112.564 21.0128C113.165 20.2176 113.786 19.6164 114.426 19.2091C115.648 18.4528 116.841 18.0746 118.004 18.0746C119.168 18.0746 120.157 18.6467 120.972 19.791C121.786 20.9352 122.193 22.4673 122.193 24.3873C122.193 26.54 121.757 28.5182 120.884 30.3219C119.915 32.3582 118.538 33.7644 116.753 34.54C115.745 34.9862 114.64 35.2091 113.437 35.2091C111.75 35.2091 110.276 34.5594 109.015 33.26C107.774 31.9412 107.153 30.06 107.153 27.6164C107.153 25.1535 107.755 22.991 108.957 21.1291C110.16 19.2479 111.75 18.0649 113.728 17.58ZM131.683 21.1C131.585 21.7982 131.382 23.0103 131.072 24.7364C130.412 28.4019 130.083 31.1171 130.083 32.8819C130.083 34.6466 130.218 35.8298 130.49 36.431C128.996 36.043 127.969 35.4516 127.406 34.6564C126.844 33.8419 126.562 32.6975 126.562 31.2237C126.562 29.9244 126.766 28.1498 127.173 25.9C127.581 23.631 127.842 22.0988 127.959 21.3037C126.95 21.4782 125.874 21.8176 124.73 22.3219C124.691 21.8952 124.672 21.5752 124.672 21.3619C124.672 20.334 124.982 19.6358 125.603 19.2673C126.223 18.8794 127.115 18.6758 128.279 18.6564C128.415 17.2019 128.482 16.1546 128.482 15.5146C128.482 14.8746 128.473 14.3413 128.453 13.9146C128.453 13.4879 128.453 13.1679 128.453 12.9546C129.733 13.0903 130.664 13.4782 131.246 14.1182C131.828 14.7388 132.119 15.631 132.119 16.7946C132.119 17.26 132.07 17.9098 131.973 18.7437C133.603 18.7049 134.795 18.3849 135.552 17.7837C135.59 18.1716 135.61 18.4625 135.61 18.6564C135.61 19.5873 135.445 20.237 135.115 20.6055C134.785 20.9546 134.233 21.1291 133.457 21.1291C132.681 21.1291 132.09 21.1194 131.683 21.1ZM142.351 20.3146C142.351 20.6055 142.109 22.1376 141.624 24.911C141.159 27.6648 140.916 29.9437 140.897 31.7473C140.897 33.5316 141.013 34.6855 141.246 35.2091C139.733 34.8212 138.715 34.2394 138.191 33.4637C137.668 32.6685 137.406 31.5146 137.406 30.0019C137.406 29.1873 137.561 27.7135 137.871 25.58C138.182 23.4466 138.337 21.7885 138.337 20.6055C138.337 19.4225 138.279 18.511 138.162 17.871C138.589 17.8322 138.987 17.8128 139.355 17.8128C140.48 17.8128 141.256 18.0067 141.682 18.3946C142.128 18.7631 142.351 19.4031 142.351 20.3146ZM142.788 15.2528C142.245 15.3303 141.77 15.3691 141.362 15.3691C139.365 15.3691 138.366 14.671 138.366 13.2746C138.366 12.7703 138.511 12.0819 138.802 11.2091C139.345 11.1316 139.82 11.0928 140.228 11.0928C142.225 11.0928 143.224 11.791 143.224 13.1873C143.224 13.6916 143.079 14.38 142.788 15.2528ZM154.723 20.1982C153.463 20.1982 152.338 21.0516 151.349 22.7582C150.36 24.4455 149.865 26.1328 149.865 27.82C149.865 31.3498 150.777 33.1146 152.6 33.1146C153.899 33.1146 154.956 32.271 155.771 30.5837C156.585 28.8771 156.993 26.9666 156.993 24.8528C156.993 21.7498 156.236 20.1982 154.723 20.1982ZM152.251 17.58C152.464 17.58 152.658 17.6479 152.833 17.7837C153.026 17.9 153.123 18.0261 153.123 18.1619C151.165 19.5194 149.991 21.4103 149.603 23.8346C150.011 22.7485 150.505 21.8079 151.087 21.0128C151.688 20.2176 152.309 19.6164 152.949 19.2091C154.171 18.4528 155.363 18.0746 156.527 18.0746C157.691 18.0746 158.68 18.6467 159.494 19.791C160.309 20.9352 160.716 22.4673 160.716 24.3873C160.716 26.54 160.28 28.5182 159.407 30.3219C158.437 32.3582 157.06 33.7644 155.276 34.54C154.268 34.9862 153.162 35.2091 151.96 35.2091C150.272 35.2091 148.799 34.5594 147.538 33.26C146.297 31.9412 145.676 30.06 145.676 27.6164C145.676 25.1535 146.277 22.991 147.48 21.1291C148.682 19.2479 150.273 18.0649 152.251 17.58ZM175.209 17.9873C176.353 17.9873 177.168 18.3461 177.653 19.0637C178.157 19.7619 178.409 20.7219 178.409 21.9437C178.409 23.1462 178.215 24.843 177.827 27.0346C177.459 29.2262 177.274 30.8262 177.274 31.8346C177.274 32.8237 177.4 33.551 177.653 34.0164C177.905 34.4625 178.331 34.8503 178.933 35.18C178.68 35.1994 178.322 35.2091 177.856 35.2091C176.227 35.2091 175.063 34.9571 174.365 34.4528C173.686 33.9485 173.347 33.0662 173.347 31.8055C173.347 31.088 173.541 29.6916 173.929 27.6164C174.317 25.5219 174.511 23.9607 174.511 22.9328C174.511 21.6528 174.123 21.0128 173.347 21.0128C172.901 21.0128 172.397 21.2746 171.834 21.7982C171.272 22.3219 170.729 23.0394 170.205 23.951C169.682 24.843 169.245 25.9971 168.896 27.4128C168.547 28.8285 168.372 30.2444 168.372 31.66C168.372 33.0564 168.431 34.0939 168.547 34.7728C167.926 34.8116 167.519 34.831 167.325 34.831C166.22 34.831 165.425 34.6371 164.94 34.2491C164.455 33.8612 164.213 33.2212 164.213 32.3291C164.213 31.9412 164.416 30.448 164.823 27.8491C165.231 25.2503 165.434 23.1848 165.434 21.6528C165.434 20.1013 165.27 18.6758 164.94 17.3764C166.355 17.8225 167.345 18.4625 167.907 19.2964C168.47 20.111 168.751 21.0516 168.751 22.1182C168.751 23.1655 168.634 24.3873 168.402 25.7837C169.042 23.6116 170.05 21.7691 171.427 20.2564C172.804 18.7437 174.065 17.9873 175.209 17.9873Z"
            fill="#F5F5F5" />
        <path
            d="M36.9727 29.0916C36.9727 23.067 41.8616 11.0227 47.8864 11.0227H47.9018C43.0798 11.0227 38.5266 13.1655 35.1168 16.5751C31.7071 19.9847 29.7048 24.2695 29.7046 29.0916C29.7046 31.9848 28.5552 34.7595 26.5096 36.8055C24.4637 38.8514 21.6889 40.0007 18.7957 40.0007C15.9025 40.0014 13.1273 38.8525 11.0812 36.807C9.03481 34.7616 7.88504 31.987 7.88436 29.0939C7.8839 26.2005 9.03277 23.4255 11.0782 21.3792C13.1237 19.333 15.8982 18.183 18.7914 18.1825C21.1791 18.1824 23.5434 17.7121 25.7493 16.7983C27.9552 15.8845 29.9596 14.5452 31.6477 12.8567C33.3362 11.1683 34.6752 9.16395 35.5891 6.95798C36.5027 4.75202 36.9727 2.38768 36.9727 0H36.8843C36.8843 6.0237 24.8216 10.9075 18.7959 10.9098V10.9087C15.1998 10.9086 11.6846 11.9749 8.69458 13.9727C5.70458 15.9705 3.37413 18.81 1.998 22.1323C0.621632 25.4545 0.2614 29.1102 0.962991 32.6373C1.66435 36.1641 3.39595 39.4039 5.93845 41.9468C8.48117 44.4895 11.7207 46.2214 15.2478 46.9232C18.7746 47.625 22.4303 47.265 25.7527 45.8891C29.075 44.5132 31.9148 42.183 33.9127 39.1932C35.9109 36.2032 36.9725 32.6875 36.9727 29.0916Z"
            fill="#F5F5F5" />
    </g>
    <defs>
        <clipPath id="clip0_65_679">
            <rect width="180" height="47.2727" fill="white" transform="translate(0.5)" />
        </clipPath>
    </defs>
</svg>