<svg width="180" height="47.27" viewBox="0 0 792 208" fill="none" xmlns="http://www.w3.org/2000/svg">
    <path
        d="M235.06 60.7122C235.231 57.3842 235.572 54.8242 236.084 53.0322C245.3 54.5682 256.351 55.3362 269.236 55.3362C282.121 55.3362 295.604 53.8002 309.684 50.7282C308.233 61.5656 302.729 67.4962 293.172 68.5202C290.185 68.9469 285.577 69.3736 279.348 69.8002C279.177 72.2749 277.769 83.1122 275.124 102.312C272.479 121.427 271.156 134.611 271.156 141.864C271.156 149.118 271.753 154.152 272.948 156.968C265.695 155.091 260.745 152.616 258.1 149.544C255.455 146.387 254.132 142.504 254.132 137.896C254.132 133.288 255.199 123.304 257.332 107.944C259.551 92.4989 260.873 80.0829 261.3 70.6962C254.388 71.0376 247.604 71.2082 240.948 71.2082C237.023 71.2082 235.06 67.7096 235.06 60.7122ZM406.074 128.936C403.002 130.131 400.613 130.728 398.906 130.728C393.786 130.728 390.927 130.003 390.33 128.552C381.797 106.622 376.165 92.4989 373.434 86.1842C373.178 88.4882 372.495 93.8216 371.386 102.184C369.082 118.568 367.93 132.179 367.93 143.016C367.93 145.662 368.101 149.203 368.442 153.64C362.469 153.64 358.415 152.958 356.282 151.592C354.234 150.142 353.21 148.136 353.21 145.576C353.21 144.723 354.618 133.118 357.434 110.76C360.335 88.4029 361.786 72.8296 361.786 64.0402V63.4002C359.311 59.3896 356.709 56.1042 353.978 53.5442C357.135 51.3256 360.933 50.2162 365.37 50.2162C371.002 50.2162 375.354 52.8616 378.426 58.1522C381.498 63.3576 387.514 77.7362 396.474 101.288L402.362 116.392C402.874 115.539 403.642 114.387 404.666 112.936C425.487 82.1309 436.197 61.2242 436.794 50.2162C436.794 50.3016 437.818 50.4296 439.866 50.6002C441.914 50.6856 444.09 51.1122 446.394 51.8802C448.783 52.5629 450.49 53.6722 451.514 55.2082C452.623 56.6589 453.306 58.1096 453.562 59.5602C453.818 60.9256 453.946 63.3149 453.946 66.7282C453.946 70.0562 452.538 81.3629 449.722 100.648C446.906 119.934 445.498 133.459 445.498 141.224C445.498 148.904 446.095 154.152 447.29 156.968C440.037 155.091 435.087 152.616 432.442 149.544C429.797 146.387 428.474 142.035 428.474 136.488C428.474 133.246 429.327 125.267 431.034 112.552C432.826 99.8376 434.063 89.6829 434.746 82.0882C431.333 87.9762 426.469 96.0402 420.154 106.28C413.925 116.52 410.17 122.622 408.89 124.584C407.61 126.462 406.671 127.912 406.074 128.936ZM509.083 88.8722C503.536 88.8722 498.587 92.6269 494.235 100.136C489.883 107.56 487.707 114.984 487.707 122.408C487.707 137.939 491.718 145.704 499.739 145.704C505.456 145.704 510.107 141.992 513.691 134.568C517.275 127.059 519.067 118.654 519.067 109.352C519.067 95.6989 515.739 88.8722 509.083 88.8722ZM498.203 77.3522C499.142 77.3522 499.995 77.6509 500.763 78.2482C501.616 78.7602 502.043 79.3149 502.043 79.9122C493.424 85.8856 488.262 94.2056 486.555 104.872C488.347 100.094 490.523 95.9549 493.083 92.4562C495.728 88.9576 498.459 86.3122 501.275 84.5202C506.651 81.1922 511.899 79.5282 517.019 79.5282C522.139 79.5282 526.491 82.0456 530.075 87.0802C533.659 92.1149 535.451 98.8562 535.451 107.304C535.451 116.776 533.531 125.48 529.691 133.416C525.424 142.376 519.366 148.563 511.515 151.976C507.078 153.939 502.214 154.92 496.923 154.92C489.499 154.92 483.014 152.062 477.467 146.344C472.006 140.542 469.275 132.264 469.275 121.512C469.275 110.675 471.92 101.16 477.211 92.9682C482.502 84.6909 489.499 79.4856 498.203 77.3522ZM577.203 92.8402C576.776 95.9122 575.88 101.246 574.515 108.84C571.614 124.968 570.163 136.915 570.163 144.68C570.163 152.446 570.76 157.651 571.955 160.296C565.384 158.59 560.862 155.987 558.387 152.488C555.912 148.904 554.675 143.87 554.675 137.384C554.675 131.667 555.571 123.859 557.363 113.96C559.155 103.976 560.307 97.2349 560.819 93.7362C556.382 94.5042 551.646 95.9976 546.611 98.2162C546.44 96.3389 546.355 94.9309 546.355 93.9922C546.355 89.4696 547.72 86.3976 550.451 84.7762C553.182 83.0696 557.107 82.1736 562.227 82.0882C562.824 75.6882 563.123 71.0802 563.123 68.2642C563.123 65.4482 563.08 63.1016 562.995 61.2242C562.995 59.3469 562.995 57.9389 562.995 57.0002C568.627 57.5976 572.723 59.3042 575.283 62.1202C577.843 64.8509 579.123 68.7762 579.123 73.8962C579.123 75.9442 578.91 78.8029 578.483 82.4722C585.651 82.3016 590.899 80.8936 594.227 78.2482C594.398 79.9549 594.483 81.2349 594.483 82.0882C594.483 86.1842 593.758 89.0429 592.307 90.6642C590.856 92.2002 588.424 92.9682 585.011 92.9682C581.598 92.9682 578.995 92.9256 577.203 92.8402ZM624.146 89.3842C624.146 90.6642 623.079 97.4056 620.946 109.608C618.898 121.726 617.831 131.752 617.746 139.688C617.746 147.539 618.258 152.616 619.282 154.92C612.626 153.214 608.146 150.654 605.842 147.24C603.538 143.742 602.386 138.664 602.386 132.008C602.386 128.424 603.069 121.939 604.434 112.552C605.799 103.166 606.482 95.8696 606.482 90.6642C606.482 85.4589 606.226 81.4482 605.714 78.6322C607.591 78.4616 609.341 78.3762 610.962 78.3762C615.911 78.3762 619.325 79.2296 621.202 80.9362C623.165 82.5576 624.146 85.3736 624.146 89.3842ZM626.066 67.1122C623.677 67.4536 621.586 67.6242 619.794 67.6242C611.005 67.6242 606.61 64.5522 606.61 58.4082C606.61 56.1896 607.25 53.1602 608.53 49.3202C610.919 48.9789 613.01 48.8082 614.802 48.8082C623.591 48.8082 627.986 51.8802 627.986 58.0242C627.986 60.2429 627.346 63.2722 626.066 67.1122ZM678.583 88.8722C673.036 88.8722 668.087 92.6269 663.735 100.136C659.383 107.56 657.207 114.984 657.207 122.408C657.207 137.939 661.218 145.704 669.239 145.704C674.956 145.704 679.607 141.992 683.191 134.568C686.775 127.059 688.567 118.654 688.567 109.352C688.567 95.6989 685.239 88.8722 678.583 88.8722ZM667.703 77.3522C668.642 77.3522 669.495 77.6509 670.263 78.2482C671.116 78.7602 671.543 79.3149 671.543 79.9122C662.924 85.8856 657.762 94.2056 656.055 104.872C657.847 100.094 660.023 95.9549 662.583 92.4562C665.228 88.9576 667.959 86.3122 670.775 84.5202C676.151 81.1922 681.399 79.5282 686.519 79.5282C691.639 79.5282 695.991 82.0456 699.575 87.0802C703.159 92.1149 704.951 98.8562 704.951 107.304C704.951 116.776 703.031 125.48 699.191 133.416C694.924 142.376 688.866 148.563 681.015 151.976C676.578 153.939 671.714 154.92 666.423 154.92C658.999 154.92 652.514 152.062 646.967 146.344C641.506 140.542 638.775 132.264 638.775 121.512C638.775 110.675 641.42 101.16 646.711 92.9682C652.002 84.6909 658.999 79.4856 667.703 77.3522ZM768.719 79.1442C773.754 79.1442 777.338 80.7229 779.471 83.8802C781.69 86.9522 782.799 91.1762 782.799 96.5522C782.799 101.843 781.946 109.31 780.239 118.952C778.618 128.595 777.807 135.635 777.807 140.072C777.807 144.424 778.362 147.624 779.471 149.672C780.58 151.635 782.458 153.342 785.103 154.792C783.994 154.878 782.415 154.92 780.367 154.92C773.199 154.92 768.079 153.811 765.007 151.592C762.02 149.374 760.527 145.491 760.527 139.944C760.527 136.787 761.38 130.643 763.087 121.512C764.794 112.296 765.647 105.427 765.647 100.904C765.647 95.2722 763.94 92.4562 760.527 92.4562C758.564 92.4562 756.346 93.6082 753.871 95.9122C751.396 98.2162 749.007 101.374 746.703 105.384C744.399 109.31 742.479 114.387 740.943 120.616C739.407 126.846 738.639 133.075 738.639 139.304C738.639 145.448 738.895 150.014 739.407 153C736.676 153.171 734.884 153.256 734.031 153.256C729.167 153.256 725.668 152.403 723.535 150.696C721.402 148.99 720.335 146.174 720.335 142.248C720.335 140.542 721.231 133.971 723.023 122.536C724.815 111.102 725.711 102.014 725.711 95.2722C725.711 88.4456 724.986 82.1736 723.535 76.4562C729.764 78.4189 734.116 81.2349 736.591 84.9042C739.066 88.4882 740.303 92.6269 740.303 97.3202C740.303 101.928 739.791 107.304 738.767 113.448C741.583 103.891 746.02 95.7842 752.079 89.1282C758.138 82.4722 763.684 79.1442 768.719 79.1442Z"
        fill="#333333" />
    <path
        d="M160.48 128.003C160.48 101.495 181.991 48.5002 208.5 48.5002H208.568C187.351 48.5002 167.317 57.9283 152.314 72.9306C137.311 87.9328 128.501 106.786 128.5 128.003C128.5 140.733 123.443 152.942 114.442 161.944C105.44 170.946 93.2311 176.003 80.5011 176.003C67.7711 176.006 55.5601 170.951 46.5571 161.951C37.5531 152.951 32.4941 140.743 32.4911 128.013C32.4891 115.282 37.5441 103.072 46.5441 94.0687C55.5441 85.0652 67.7521 80.0056 80.4821 80.0031C90.9881 80.0028 101.391 77.9333 111.097 73.9126C120.803 69.8919 129.622 63.9989 137.05 56.5699C144.479 49.1409 150.371 40.3216 154.392 30.6153C158.412 20.9091 160.48 10.506 160.48 0.000244141H160.091C160.091 26.5045 107.015 47.9934 80.5021 48.0033V47.9983C64.6791 47.9982 49.2121 52.6898 36.0561 61.48C22.9001 70.2703 12.6461 82.7643 6.59113 97.3822C0.535125 112 -1.04989 128.085 2.03711 143.604C5.12311 159.122 12.7421 173.377 23.9291 184.566C35.1171 195.754 49.3711 203.374 64.8901 206.462C80.4081 209.55 96.4931 207.966 111.112 201.912C125.73 195.858 138.225 185.605 147.016 172.45C155.808 159.294 160.479 143.825 160.48 128.003Z"
        fill="url(#paint0_linear_65_630)" />
    <defs>
        <linearGradient id="paint0_linear_65_630" x1="23.394" y1="154.776" x2="189.378" y2="33.9283"
            gradientUnits="userSpaceOnUse">
            <stop offset="0.295" stop-color="#9E00FF" stop-opacity="0.89" />
            <stop offset="0.384" stop-color="#9E00FF" />
            <stop offset="0.477" stop-color="#9E00FF" stop-opacity="0.88" />
            <stop offset="0.571" stop-color="#9E00FF" />
            <stop offset="0.666" stop-color="#9E00FF" />
            <stop offset="0.761" stop-color="#9E00FF" stop-opacity="0.83" />
            <stop offset="0.857" stop-color="#9E00FF" />
            <stop offset="0.868" stop-color="#9E00FF" />
        </linearGradient>
    </defs>
</svg>